<svg width="249" height="211" viewBox="0 0 249 211" fill="none" xmlns="http://www.w3.org/2000/svg">
<path d="M0.671402 183.899C14.7198 197.374 32.9805 206.174 52.1455 209.416C71.4207 212.658 91.4678 210.452 109.265 202.204C126.49 194.221 141.023 180.79 151.058 164.734C156.086 156.707 159.99 147.929 162.548 138.799C165.128 129.602 166.474 119.81 165.834 110.261C165.172 100.425 162.217 90.2139 154.873 83.2228C147.088 75.8568 136.524 71.4239 125.96 70.0786C115.264 68.7333 103.995 69.7698 94.0041 73.938C89.5712 75.7906 85.3148 78.1283 81.8744 81.5026C78.8089 84.5019 76.2726 88.1409 74.398 92.0003C70.8693 99.234 68.8184 108.651 73.141 116.017C75.3684 119.81 79.2058 122.677 82.8447 125.037C87.0791 127.772 91.7325 129.999 96.5403 131.455C101.282 132.888 106.398 133.285 111.317 133.594C116.786 133.925 122.255 133.881 127.725 133.484C138.641 132.668 149.47 130.485 159.835 126.934C169.958 123.471 179.971 118.818 188.704 112.599C197.129 106.622 204.186 98.9914 209.898 90.4124C222.623 71.3357 227.938 48.598 230.496 26.1029C231.158 20.2806 231.643 14.4583 232.04 8.61401C232.128 7.4231 230.96 6.40862 229.835 6.40862C228.578 6.40862 227.718 7.4231 227.629 8.61401C226.086 31.043 223.329 54.0894 213.691 74.6658C209.567 83.4654 204.296 91.7577 197.68 98.8812C190.887 106.181 182.816 111.717 173.95 116.216C155.425 125.633 134.341 130.176 113.588 129.294C108.824 129.095 103.862 128.808 99.2308 127.618C94.82 126.471 90.6078 124.552 86.7042 122.236C83.3079 120.207 79.4043 117.583 77.2871 114.319C75.4125 111.452 74.9494 108.122 75.192 104.659C75.7654 97.0727 79.9336 89.3097 85.4912 84.127C88.667 81.1497 92.8131 79.0325 96.9152 77.4888C101.723 75.6803 106.795 74.5776 111.89 74.1586C121.969 73.3205 132.268 74.6879 141.376 79.2531C145.765 81.4364 149.999 84.2593 153.285 87.9203C156.241 91.2284 158.247 95.2864 159.527 99.5207C162.173 108.32 161.997 117.892 160.607 126.912C159.24 135.778 156.549 144.467 152.668 152.583C144.971 168.726 132.863 182.797 117.778 192.456C102.252 202.403 83.9915 207.056 65.5984 206.372C47.2716 205.689 29.1652 199.756 14.1244 189.259C10.4634 186.7 7.02301 183.855 3.80312 180.768C1.73004 178.827 -1.37962 181.937 0.671402 183.899Z" fill="#F8C719"/>
<path d="M247.159 12.0718C246.872 11.9836 246.607 11.8733 246.32 11.763C246.497 11.8292 246.673 11.9174 246.85 11.9836C245.019 11.1896 243.387 9.99869 241.777 8.85188C240.079 7.66096 238.403 6.44799 236.727 5.21297C235.779 4.50724 234.83 3.77944 233.882 3.05166C234.036 3.16193 234.169 3.27222 234.323 3.40455C233.22 2.56649 232.162 1.66226 231.037 0.846258C229.67 -0.168228 227.773 -0.322563 226.339 0.669868C225.325 1.3756 224.509 2.34597 223.605 3.20608C222.789 4.00003 221.951 4.7719 221.091 5.49968C220.12 6.33773 219.128 7.15373 218.135 7.92562C218.29 7.81535 218.422 7.70509 218.577 7.57276C215.842 9.68995 212.953 11.5645 209.909 13.2186C209.049 13.6817 208.167 14.1448 207.263 14.5859C206.778 14.8065 206.381 15.4019 206.248 15.9092C206.094 16.4385 206.16 17.1442 206.469 17.6073C206.778 18.0705 207.219 18.4895 207.792 18.6218C208.388 18.7541 208.939 18.6659 209.49 18.4013C215.18 15.6225 220.451 12.0277 225.127 7.7933C225.766 7.2199 226.384 6.62444 227.001 6.02898C227.597 5.43352 228.17 4.77191 228.832 4.24261C228.677 4.35288 228.545 4.46312 228.391 4.59544C228.567 4.46312 228.743 4.35288 228.964 4.24261C228.788 4.30877 228.611 4.39699 228.435 4.46315C228.589 4.39699 228.743 4.35286 228.898 4.3308C228.699 4.35286 228.501 4.37494 228.302 4.41905C228.435 4.397 228.589 4.397 228.721 4.41905C228.523 4.397 228.324 4.37491 228.126 4.3308C228.28 4.35286 228.413 4.39697 228.545 4.44107C228.368 4.37491 228.192 4.2867 228.016 4.22053C228.324 4.35286 228.589 4.5293 228.854 4.72779C228.699 4.61752 228.567 4.50723 228.413 4.3749C232.757 7.74917 237.08 11.1455 241.667 14.1669C242.99 15.0491 244.38 15.7989 245.901 16.3062C246.431 16.4826 247.137 16.3503 247.6 16.0856C248.063 15.821 248.504 15.2917 248.614 14.7624C248.967 13.5715 248.327 12.4688 247.159 12.0718Z" fill="#F8C719"/>
</svg>
