<svg width="11" height="11" viewBox="0 0 11 11" fill="none" xmlns="http://www.w3.org/2000/svg">
<g clip-path="url(#clip0_151_292)">
<path d="M8.18476 0.760742H2.76371C1.44284 0.760742 0.37207 1.83152 0.37207 3.15238V8.57344C0.37207 9.8943 1.44284 10.9651 2.76371 10.9651H8.18476C9.50563 10.9651 10.5764 9.8943 10.5764 8.57344V3.15238C10.5764 1.83152 9.50563 0.760742 8.18476 0.760742Z" fill="url(#paint0_radial_151_292)"/>
<path d="M8.18476 0.760742H2.76371C1.44284 0.760742 0.37207 1.83152 0.37207 3.15238V8.57344C0.37207 9.8943 1.44284 10.9651 2.76371 10.9651H8.18476C9.50563 10.9651 10.5764 9.8943 10.5764 8.57344V3.15238C10.5764 1.83152 9.50563 0.760742 8.18476 0.760742Z" fill="url(#paint1_radial_151_292)"/>
<path d="M5.47471 1.87695C4.39217 1.87695 4.25629 1.8817 3.83113 1.90103C3.40678 1.92048 3.11711 1.98765 2.86367 2.08622C2.60147 2.18803 2.37909 2.32423 2.15754 2.54586C1.9358 2.76744 1.79959 2.98982 1.69747 3.25191C1.59862 3.50542 1.53137 3.79521 1.51228 4.21937C1.49326 4.64456 1.48828 4.78049 1.48828 5.86306C1.48828 6.94564 1.49306 7.08108 1.51236 7.50624C1.53189 7.93059 1.59905 8.22026 1.69755 8.4737C1.79943 8.7359 1.93564 8.95828 2.15726 9.17983C2.37877 9.40157 2.60115 9.5381 2.86316 9.6399C3.11679 9.73848 3.4065 9.80564 3.83077 9.82509C4.25597 9.84443 4.39173 9.84917 5.47423 9.84917C6.55689 9.84917 6.69233 9.84443 7.11749 9.82509C7.54184 9.80564 7.83183 9.73848 8.08546 9.6399C8.34755 9.5381 8.56961 9.40157 8.79108 9.17983C9.01282 8.95828 9.14899 8.7359 9.25115 8.47382C9.34913 8.22026 9.41641 7.93051 9.43634 7.50632C9.45543 7.08116 9.46042 6.94564 9.46042 5.86306C9.46042 4.78049 9.45543 4.64464 9.43634 4.21945C9.41641 3.79509 9.34913 3.50546 9.25115 3.25203C9.14899 2.98982 9.01282 2.76744 8.79108 2.54586C8.56937 2.32415 8.34763 2.18795 8.08522 2.08626C7.83111 1.98765 7.54128 1.92044 7.11693 1.90103C6.69173 1.8817 6.55637 1.87695 5.47347 1.87695H5.47471ZM5.11712 2.59528C5.22327 2.59512 5.34169 2.59528 5.47471 2.59528C6.53903 2.59528 6.66515 2.59911 7.08544 2.6182C7.47408 2.63598 7.68502 2.70091 7.82553 2.75548C8.01156 2.82771 8.14418 2.91409 8.28361 3.05364C8.42312 3.19315 8.50946 3.32601 8.58189 3.51204C8.63646 3.65235 8.70147 3.86329 8.71917 4.25193C8.73826 4.67214 8.74241 4.79834 8.74241 5.86214C8.74241 6.92595 8.73826 7.05218 8.71917 7.47236C8.70139 7.861 8.63646 8.07194 8.58189 8.21229C8.50966 8.39832 8.42312 8.53078 8.28361 8.67021C8.1441 8.80972 8.01164 8.89606 7.82553 8.96833C7.68518 9.02314 7.47408 9.08791 7.08544 9.10569C6.66523 9.12478 6.53903 9.12893 5.47471 9.12893C4.41035 9.12893 4.28419 9.12478 3.86402 9.10569C3.47538 9.08775 3.26443 9.02282 3.1238 8.96825C2.93781 8.89598 2.80492 8.80964 2.66541 8.67013C2.52589 8.53062 2.43956 8.39808 2.36713 8.21197C2.31256 8.07162 2.24755 7.86068 2.22985 7.47204C2.21076 7.05183 2.20693 6.92563 2.20693 5.86115C2.20693 4.79671 2.21076 4.67115 2.22985 4.25094C2.24763 3.86229 2.31256 3.65135 2.36713 3.51084C2.4394 3.32481 2.52589 3.19196 2.66545 3.05244C2.80496 2.91293 2.93781 2.82655 3.12384 2.75417C3.26435 2.69936 3.47538 2.63459 3.86402 2.61673C4.23173 2.60011 4.37423 2.59512 5.11712 2.59429V2.59528ZM7.60247 3.25713C7.33839 3.25713 7.12414 3.47118 7.12414 3.7353C7.12414 3.99938 7.33839 4.21363 7.60247 4.21363C7.86655 4.21363 8.0808 3.99938 8.0808 3.7353C8.0808 3.47122 7.86655 3.25697 7.60247 3.25697V3.25713ZM5.47471 3.81602C4.34426 3.81602 3.4277 4.73257 3.4277 5.86306C3.4277 6.99355 4.34426 7.90967 5.47471 7.90967C6.6052 7.90967 7.52143 6.99355 7.52143 5.86306C7.52143 4.73261 6.60512 3.81602 5.47463 3.81602H5.47471ZM5.47471 4.53435C6.2085 4.53435 6.80342 5.12919 6.80342 5.86306C6.80342 6.59686 6.2085 7.19178 5.47471 7.19178C4.74087 7.19178 4.14603 6.59686 4.14603 5.86306C4.14603 5.12919 4.74087 4.53435 5.47471 4.53435Z" fill="#FBFBFB"/>
</g>
<defs>
<radialGradient id="paint0_radial_151_292" cx="0" cy="0" r="1" gradientUnits="userSpaceOnUse" gradientTransform="translate(3.0826 11.751) rotate(-90) scale(10.1133 9.40612)">
<stop stop-color="#FFDD55"/>
<stop offset="0.1" stop-color="#FFDD55"/>
<stop offset="0.5" stop-color="#FF543E"/>
<stop offset="1" stop-color="#C837AB"/>
</radialGradient>
<radialGradient id="paint1_radial_151_292" cx="0" cy="0" r="1" gradientUnits="userSpaceOnUse" gradientTransform="translate(-1.3372 1.49581) rotate(78.681) scale(4.52068 18.6344)">
<stop stop-color="#3771C8"/>
<stop offset="0.128" stop-color="#3771C8"/>
<stop offset="1" stop-color="#6600FF" stop-opacity="0"/>
</radialGradient>
<clipPath id="clip0_151_292">
<rect width="10.2043" height="10.2043" fill="white" transform="translate(0.37207 0.759766)"/>
</clipPath>
</defs>
</svg>
