<svg width="11" height="11" viewBox="0 0 11 11" fill="none" xmlns="http://www.w3.org/2000/svg">
<mask id="mask0_151_298" style="mask-type:luminance" maskUnits="userSpaceOnUse" x="0" y="0" width="11" height="11">
<path d="M0.576172 0.759766H10.7805V10.9641H0.576172V0.759766Z" fill="white"/>
</mask>
<g mask="url(#mask0_151_298)">
<path d="M6.6397 0.834505L6.33357 0.79154C5.41353 0.6587 4.47468 0.790119 3.62648 1.17048C2.77828 1.55084 2.05567 2.16446 1.5429 2.93982C0.997318 3.68097 0.672085 4.5611 0.604625 5.47892C0.537166 6.39675 0.730223 7.31497 1.16158 8.12792C1.20572 8.2094 1.23321 8.29885 1.24243 8.39105C1.25165 8.48326 1.24242 8.57638 1.21529 8.66499C0.995087 9.42226 0.791 10.1849 0.576172 10.9851L0.844707 10.9046C1.56975 10.7112 2.2948 10.5179 3.01984 10.3406C3.17288 10.3088 3.33194 10.3238 3.47635 10.3836C4.12685 10.7011 4.83773 10.8757 5.56128 10.8959C6.28484 10.916 7.00433 10.7811 7.67147 10.5003C8.3386 10.2195 8.93795 9.79917 9.42929 9.26764C9.92063 8.73612 10.2926 8.10564 10.5202 7.41853C10.7478 6.73141 10.8258 6.00356 10.749 5.28381C10.6722 4.56407 10.4423 3.86908 10.0748 3.2455C9.70723 2.62191 9.21057 2.08416 8.6181 1.66832C8.02564 1.25248 7.35108 0.968185 6.6397 0.834505ZM7.99311 7.88087C7.79792 8.05562 7.55989 8.17553 7.30328 8.22836C7.04667 8.28119 6.78063 8.26507 6.53228 8.18163C5.40688 7.86473 4.43052 7.15863 3.77711 6.1891C3.52753 5.84619 3.32688 5.47021 3.18096 5.07199C3.10193 4.84093 3.08768 4.59264 3.13976 4.35405C3.19183 4.11547 3.30824 3.89569 3.47635 3.71857C3.55819 3.61412 3.6696 3.53674 3.79605 3.4965C3.9225 3.45627 4.05813 3.45505 4.18528 3.493C4.2927 3.51986 4.36789 3.67561 4.46456 3.79376C4.54297 4.01557 4.63481 4.23255 4.73847 4.44362C4.81711 4.5513 4.84995 4.68573 4.82983 4.81755C4.8097 4.94936 4.73824 5.06786 4.63105 5.14718C4.38937 5.36201 4.42697 5.53924 4.59883 5.78092C4.97878 6.32828 5.50304 6.75959 6.11337 7.02692C6.28523 7.10211 6.41413 7.11823 6.52691 6.94099C6.57525 6.87117 6.6397 6.8121 6.6934 6.74765C7.0049 6.35559 6.90823 6.36096 7.40234 6.57579C7.5597 6.64185 7.71222 6.71918 7.85884 6.80673C8.00385 6.89266 8.22405 6.98396 8.25628 7.11286C8.28728 7.25269 8.27912 7.39837 8.23269 7.53387C8.18626 7.66936 8.10336 7.78943 7.99311 7.88087Z" fill="#1FAF38"/>
</g>
</svg>
