<svg width="39" height="44" viewBox="0 0 39 44" fill="none" xmlns="http://www.w3.org/2000/svg">
<path d="M19.5548 0.929688L38.1564 7.44027V22.4332C38.1564 30.1101 33.4446 35.4767 29.0491 38.8082C26.397 40.8005 23.4873 42.4243 20.3993 43.6354C20.3455 43.6562 20.2915 43.6766 20.2375 43.6967L20.191 43.7135L20.1779 43.7172L20.1723 43.7191C20.1705 43.7191 20.1686 43.7191 19.5548 41.9649L18.9391 43.7209L18.9316 43.7172L18.9186 43.7135L18.8721 43.6949C18.6236 43.6031 18.3768 43.507 18.1317 43.4066C15.2569 42.221 12.5441 40.6753 10.0586 38.8064C5.66864 35.4785 0.953125 30.112 0.953125 22.4351V7.44027L19.5548 0.929688ZM19.5548 41.9649L18.9391 43.7209L19.5548 43.9367L20.1705 43.7209L19.5548 41.9649ZM19.5548 39.9708L19.5715 39.9634C22.1458 38.9003 24.5752 37.5159 26.802 35.8431C30.779 32.8315 34.4361 28.4285 34.4361 22.4332V10.0817L19.5548 4.87324L4.67345 10.0817V22.4332C4.67345 28.4285 8.33054 32.8278 12.3076 35.845C14.5392 37.521 16.9744 38.9074 19.5548 39.9708ZM30.8497 15.6306L17.6965 28.7838L9.80379 20.893L12.4359 18.2608L17.6946 23.5233L28.2176 13.0003L30.8497 15.6306Z" fill="#1A0C2C"/>
</svg>
