<svg width="210" height="211" viewBox="0 0 210 211" fill="none" xmlns="http://www.w3.org/2000/svg">
<path d="M248.04 26.9482C233.991 13.4732 215.73 4.67369 196.565 1.43174C177.29 -1.8102 157.243 0.395194 139.446 8.6434C122.221 16.627 107.688 30.0579 97.6531 46.1132C92.6248 54.1409 88.7212 62.9184 86.163 72.0487C83.5826 81.2452 82.2374 91.0372 82.8769 100.587C83.5386 110.423 86.4937 120.634 93.8377 127.625C101.623 134.991 112.187 139.424 122.751 140.769C133.447 142.114 144.716 141.078 154.707 136.91C159.14 135.057 163.396 132.719 166.837 129.345C169.902 126.346 172.438 122.707 174.313 118.847C177.842 111.614 179.893 102.197 175.57 94.8305C173.343 91.0372 169.505 88.1702 165.866 85.8104C161.632 83.0757 156.978 80.8483 152.171 79.3927C147.429 77.9592 142.312 77.5622 137.394 77.2535C131.925 76.9227 126.456 76.9668 120.986 77.3637C110.07 78.1797 99.241 80.3631 88.8756 83.9138C78.7528 87.3763 68.7403 92.0297 60.0069 98.2489C51.5822 104.226 44.5249 111.856 38.8129 120.435C26.0878 139.512 20.7728 162.25 18.2145 184.745C17.5529 190.567 17.0677 196.389 16.6707 202.234C16.5825 203.425 17.7514 204.439 18.8761 204.439C20.1332 204.439 20.9933 203.425 21.0815 202.234C22.6253 179.805 25.3821 156.758 35.0197 136.182C39.1438 127.382 44.4147 119.09 51.031 111.966C57.8236 104.667 65.8953 99.1311 74.761 94.632C93.2864 85.215 114.37 80.6718 135.123 81.554C139.887 81.7525 144.849 82.0392 149.48 83.2301C153.891 84.3769 158.103 86.2956 162.007 88.6113C165.403 90.6403 169.307 93.2647 171.424 96.5287C173.298 99.3957 173.762 102.726 173.519 106.188C172.946 113.775 168.777 121.538 163.22 126.721C160.044 129.698 155.898 131.815 151.796 133.359C146.988 135.167 141.916 136.27 136.821 136.689C126.742 137.527 116.443 136.16 107.335 131.595C102.946 129.411 98.7117 126.588 95.4257 122.927C92.4704 119.619 90.4635 115.561 89.1844 111.327C86.5379 102.527 86.7143 92.9559 88.1037 83.9358C89.471 75.0701 92.1616 66.3808 96.0431 58.2649C103.74 42.1214 115.848 28.0509 130.933 18.3913C146.459 8.4449 164.719 3.79151 183.112 4.47518C201.439 5.15886 219.546 11.0914 234.587 21.5891C238.248 24.1474 241.688 26.9923 244.908 30.0799C246.981 32.0207 250.091 28.911 248.04 26.9482Z" fill="url(#paint0_linear_86_322)"/>
<path d="M1.55236 198.776C1.83907 198.864 2.10378 198.974 2.39048 199.085C2.21405 199.018 2.03764 198.93 1.86121 198.864C3.69169 199.658 5.32369 200.849 6.93363 201.996C8.63179 203.187 10.3079 204.4 11.984 205.635C12.9323 206.34 13.8806 207.068 14.8289 207.796C14.6746 207.686 14.5422 207.575 14.3878 207.443C15.4905 208.281 16.5491 209.185 17.6739 210.001C19.0412 211.016 20.9379 211.17 22.3714 210.178C23.3859 209.472 24.2019 208.502 25.1061 207.642C25.9221 206.848 26.7602 206.076 27.6203 205.348C28.5906 204.51 29.583 203.694 30.5755 202.922C30.4211 203.032 30.2888 203.143 30.1344 203.275C32.8691 201.158 35.7582 199.283 38.8017 197.629C39.6618 197.166 40.544 196.703 41.4482 196.262C41.9334 196.041 42.3303 195.446 42.4626 194.938C42.617 194.409 42.5508 193.703 42.242 193.24C41.9333 192.777 41.4922 192.358 40.9188 192.226C40.3233 192.094 39.7721 192.182 39.2207 192.446C33.5308 195.225 28.2599 198.82 23.5844 203.054C22.9449 203.628 22.3273 204.223 21.7098 204.819C21.1144 205.414 20.5409 206.076 19.8793 206.605C20.0337 206.495 20.166 206.385 20.3204 206.252C20.1439 206.385 19.9675 206.495 19.7469 206.605C19.9234 206.539 20.0999 206.451 20.2763 206.385C20.1219 206.451 19.9675 206.495 19.8132 206.517C20.0116 206.495 20.2101 206.473 20.4086 206.429C20.2762 206.451 20.1219 206.451 19.9895 206.429C20.188 206.451 20.3866 206.473 20.5851 206.517C20.4307 206.495 20.2984 206.451 20.166 206.407C20.3425 206.473 20.5189 206.561 20.6953 206.627C20.3866 206.495 20.1219 206.318 19.8572 206.12C20.0116 206.23 20.1439 206.34 20.2983 206.473C15.9536 203.098 11.6311 199.702 7.0439 196.681C5.72066 195.799 4.33121 195.049 2.80949 194.542C2.28019 194.365 1.57442 194.497 1.11128 194.762C0.648148 195.027 0.207154 195.556 0.096884 196.085C-0.25598 197.276 0.3835 198.379 1.55236 198.776Z" fill="url(#paint1_linear_86_322)"/>
<defs>
<linearGradient id="paint0_linear_86_322" x1="163.578" y1="-59.4732" x2="-62.9441" y2="77.9027" gradientUnits="userSpaceOnUse">
<stop stop-color="#B74FDC"/>
<stop offset="1" stop-color="#813BDB"/>
</linearGradient>
<linearGradient id="paint1_linear_86_322" x1="26.9345" y1="186.73" x2="4.03308" y2="214.595" gradientUnits="userSpaceOnUse">
<stop stop-color="#B74FDC"/>
<stop offset="1" stop-color="#813BDB"/>
</linearGradient>
</defs>
</svg>
