<svg width="45" height="46" viewBox="0 0 45 46" fill="none" xmlns="http://www.w3.org/2000/svg">
<path d="M12.473 6.7878C12.1242 6.43907 11.6511 6.24316 11.1579 6.24316C10.6646 6.24316 10.1916 6.43907 9.84272 6.7878L7.43752 9.19299L6.8925 8.64796C6.54166 8.30912 6.07178 8.12162 5.58405 8.12586C5.09632 8.1301 4.62977 8.32573 4.28488 8.67062C3.93999 9.01551 3.74436 9.48206 3.74012 9.96979C3.73588 10.4575 3.92338 10.9274 4.26222 11.2782L6.12239 13.1384C6.47122 13.4871 6.94428 13.683 7.43752 13.683C7.93077 13.683 8.40383 13.4871 8.75266 13.1384L12.473 9.41807C12.8217 9.06924 13.0176 8.59618 13.0176 8.10293C13.0176 7.60968 12.8217 7.13663 12.473 6.7878ZM39.0659 32.2721H18.5985L18.3809 32.2851C17.9101 32.3411 17.4784 32.5747 17.1741 32.9383C16.8698 33.3019 16.7158 33.7679 16.7436 34.2412C16.7714 34.7145 16.9789 35.1594 17.3236 35.4848C17.6684 35.8103 18.1244 35.9919 18.5985 35.9924H39.0659L39.2836 35.9812C39.7577 35.9292 40.1938 35.697 40.5016 35.3326C40.8095 34.9682 40.9655 34.4994 40.9376 34.0232C40.9096 33.547 40.6998 33.0997 40.3515 32.7738C40.0032 32.4479 39.5429 32.2683 39.0659 32.2721ZM39.0659 21.1241H18.5985L18.3809 21.1371C17.9101 21.1931 17.4784 21.4268 17.1741 21.7903C16.8698 22.1539 16.7158 22.62 16.7436 23.0933C16.7714 23.5666 16.9789 24.0114 17.3236 24.3369C17.6684 24.6623 18.1244 24.8439 18.5985 24.8444H39.0659L39.2836 24.8314C39.7544 24.7754 40.186 24.5417 40.4903 24.1782C40.7946 23.8146 40.9486 23.3485 40.9208 22.8752C40.893 22.4019 40.6856 21.9571 40.3408 21.6316C39.9961 21.3062 39.54 21.1246 39.0659 21.1241ZM39.0659 9.9631H18.5985L18.3809 9.97612C17.9101 10.0321 17.4784 10.2658 17.1741 10.6293C16.8698 10.9929 16.7158 11.459 16.7436 11.9323C16.7714 12.4056 16.9789 12.8504 17.3236 13.1759C17.6684 13.5014 18.1244 13.6829 18.5985 13.6834H39.0659L39.2836 13.6704C39.7544 13.6144 40.186 13.3808 40.4903 13.0172C40.7946 12.6536 40.9486 12.1876 40.9208 11.7142C40.893 11.2409 40.6856 10.7961 40.3408 10.4706C39.9961 10.1452 39.54 9.96362 39.0659 9.9631ZM12.473 30.9699C12.1242 30.6212 11.6511 30.4253 11.1579 30.4253C10.6646 30.4253 10.1916 30.6212 9.84272 30.9699L7.43752 33.3751L6.8925 32.8301C6.54166 32.4913 6.07178 32.3038 5.58405 32.308C5.09632 32.3122 4.62977 32.5079 4.28488 32.8528C3.93999 33.1977 3.74436 33.6642 3.74012 34.1519C3.73588 34.6397 3.92338 35.1096 4.26222 35.4604L6.12239 37.3205C6.47122 37.6693 6.94428 37.8652 7.43752 37.8652C7.93077 37.8652 8.40383 37.6693 8.75266 37.3205L12.473 33.6002C12.8217 33.2514 13.0176 32.7783 13.0176 32.2851C13.0176 31.7918 12.8217 31.3188 12.473 30.9699ZM9.84272 18.8789C10.1935 18.54 10.6634 18.3525 11.1512 18.3568C11.6389 18.361 12.1054 18.5566 12.4503 18.9015C12.7952 19.2464 12.9909 19.713 12.9951 20.2007C12.9993 20.6884 12.8118 21.1583 12.473 21.5091L8.75266 25.2295C8.40383 25.5782 7.93077 25.7741 7.43752 25.7741C6.94428 25.7741 6.47122 25.5782 6.12239 25.2295L4.26222 23.3693C4.08456 23.1977 3.94285 22.9925 3.84536 22.7655C3.74787 22.5386 3.69655 22.2945 3.69441 22.0475C3.69226 21.8005 3.73933 21.5555 3.83286 21.3269C3.92639 21.0983 4.06451 20.8906 4.23917 20.716C4.41382 20.5413 4.62151 20.4032 4.85012 20.3097C5.07873 20.2161 5.32367 20.1691 5.57067 20.1712C5.81766 20.1734 6.06175 20.2247 6.28869 20.3222C6.51564 20.4197 6.7209 20.5614 6.8925 20.739L7.43752 21.2841L9.84272 18.8789Z" fill="#1A0C2C"/>
</svg>
