<svg width="39" height="40" viewBox="0 0 39 40" fill="none" xmlns="http://www.w3.org/2000/svg">
<path d="M37.0801 30.5566C37.0801 30.1474 37.0243 29.7753 36.9684 29.3847L38.531 28.0268C38.8658 27.7291 38.9402 27.2455 38.717 26.8549L37.6195 24.9575C37.5144 24.7707 37.3465 24.6271 37.1456 24.5522C36.9447 24.4773 36.7238 24.4759 36.522 24.5483L34.5502 25.2179C33.955 24.7157 33.2853 24.325 32.5413 24.046L32.132 22.0184C32.0882 21.8088 31.9738 21.6206 31.8079 21.4852C31.642 21.3498 31.4347 21.2754 31.2205 21.2744H29.0255C28.5791 21.2744 28.2071 21.5906 28.1141 22.0184L27.7048 24.046C26.9608 24.325 26.2911 24.7157 25.6958 25.2179L23.7241 24.5483C23.522 24.4789 23.3022 24.4817 23.1021 24.5564C22.9019 24.631 22.7339 24.7728 22.6266 24.9575L21.5291 26.8549C21.3059 27.2455 21.3803 27.7291 21.7151 28.0268L23.2776 29.3847C23.2218 29.7753 23.166 30.1474 23.166 30.5566C23.166 30.9658 23.2218 31.3379 23.2776 31.7285L21.7151 33.0864C21.3803 33.384 21.3059 33.8677 21.5291 34.2583L22.6266 36.1557C22.8498 36.5463 23.3148 36.7137 23.7241 36.5649L25.6958 35.8953C26.2911 36.3975 26.9608 36.7881 27.7048 37.0672L28.1141 39.0947C28.2071 39.5226 28.5791 39.8388 29.0255 39.8388H31.2205C31.667 39.8388 32.039 39.5226 32.132 39.0947L32.5413 37.0672C33.2853 36.7881 33.955 36.3975 34.5502 35.8953L36.522 36.5649C36.9498 36.7137 37.3963 36.5277 37.6195 36.1557L38.717 34.2583C38.9402 33.8677 38.8658 33.384 38.531 33.0864L36.9684 31.7285C37.0243 31.3379 37.0801 30.9658 37.0801 30.5566ZM30.1044 34.2769C28.0583 34.2769 26.3841 32.6028 26.3841 30.5566C26.3841 28.5104 28.0583 26.8363 30.1044 26.8363C32.1506 26.8363 33.8248 28.5104 33.8248 30.5566C33.8248 32.6028 32.1506 34.2769 30.1044 34.2769ZM17.0833 8.23461C16.0602 8.23461 15.2231 9.07168 15.2231 10.0948V17.5354C15.2231 18.0377 15.4277 18.5027 15.7626 18.8561L19.6131 22.7067L21.5477 19.377L18.9434 16.7728V10.0948C18.9434 9.07168 18.1064 8.23461 17.0833 8.23461ZM2.68561 19.3956C1.4765 19.3956 0.565017 20.5303 0.862643 21.7022C2.72281 28.9382 9.27059 34.2769 17.0833 34.2769H17.2135L14.9627 30.3892C12.4679 29.9735 10.1478 28.8414 8.28502 27.1305C6.42226 25.4197 5.09724 23.2041 4.47136 20.7535C4.36888 20.3598 4.13714 20.012 3.81332 19.7657C3.4895 19.5195 3.09236 19.3891 2.68561 19.3956ZM2.20196 13.8151C1.17887 13.8151 0.341797 12.978 0.341797 11.9549V4.51428C0.341797 3.49118 1.17887 2.65411 2.20196 2.65411C3.22505 2.65411 4.06213 3.49118 4.06213 4.51428V7.0441C7.1314 3.24936 11.819 0.793945 17.0833 0.793945C21.5234 0.793945 25.7817 2.55778 28.9213 5.69741C32.0609 8.83705 33.8248 13.0953 33.8248 17.5354H30.1044C30.1044 10.3552 24.2635 4.51428 17.0833 4.51428C14.9859 4.5172 12.9203 5.02599 11.0615 5.99748C9.20271 6.96897 7.6057 8.37448 6.40594 10.0948H9.64262C10.6657 10.0948 11.5028 10.9318 11.5028 11.9549C11.5028 12.978 10.6657 13.8151 9.64262 13.8151H2.20196Z" fill="#1A0C2C"/>
</svg>
